<svg xmlns="http://www.w3.org/2000/svg" viewBox="0 0 64 64" role="img" aria-label="QamoosTech">
  <defs>
    <linearGradient id="g" x1="8" y1="14" x2="56" y2="50" gradientUnits="userSpaceOnUse">
      <stop offset="0" stop-color="#22d3ee"/>
      <stop offset="1" stop-color="#6366f1"/>
    </linearGradient>
  </defs>
  <!-- open book -->
  <path d="M32 17.5C25 13.5 15.5 13.2 8 16v31c7.5-2.6 17-2.3 24 1.7 7-4 16.5-4.3 24-1.7V16c-7.5-2.8-17-2.5-24 1.5Z" fill="url(#g)" fill-opacity=".14" stroke="url(#g)" stroke-width="3" stroke-linejoin="round"/>
  <path d="M32 17.5V48.5" stroke="url(#g)" stroke-width="3" stroke-linecap="round"/>
  <!-- left page: code braces -->
  <path d="M22 25c-2.6 0-3.4 1-3.4 3v2.2c0 1.3-.7 2.3-2.1 2.8 1.4.5 2.1 1.500 2.100 2.800V38c0 2 .8 3 3.400 3" fill="none" stroke="url(#g)" stroke-width="2.4" stroke-linecap="round" stroke-linejoin="round"/>
  <path d="M26.500 25h1.200M26.500 41h1.200" stroke="url(#g)" stroke-width="2.4" stroke-linecap="round"/>
  <!-- right page: Arabic qaf -->
  <circle cx="40.500" cy="23" r="1.500" fill="url(#g)"/>
  <circle cx="46" cy="23" r="1.500" fill="url(#g)"/>
  <path d="M38 33.500c0-3 2.200-4.500 5-4.500s5 1.500 5 4.500c0 6-3 9-8.500 9" fill="none" stroke="url(#g)" stroke-width="2.600" stroke-linecap="round" stroke-linejoin="round"/>
</svg>
